<svg xmlns="http://www.w3.org/2000/svg" viewBox="0 0 40 54" role="img" aria-label="Esha Naturals"><defs><linearGradient id="mg" x1="8" y1="6" x2="32" y2="46" gradientUnits="userSpaceOnUse">
    <stop offset="0" stop-color="#fbe4a1"/><stop offset=".45" stop-color="#e0a94b"/><stop offset=".8" stop-color="#b87426"/><stop offset="1" stop-color="#8a5314"/></linearGradient>
  <linearGradient id="ml" x1="4" y1="44" x2="36" y2="49" gradientUnits="userSpaceOnUse">
    <stop offset="0" stop-color="#6f8a3c"/><stop offset=".5" stop-color="#3f5a22"/><stop offset="1" stop-color="#6f8a3c"/></linearGradient></defs><g transform="translate(0 0) scale(1)">
  <path d="M20 1.5C20 1.5 5.5 19.5 5.5 31.2a14.5 14.5 0 0 0 29 0C34.5 19.5 20 1.5 20 1.5Z" fill="url(#mg)"/>
  <path d="M20 1.5C20 1.5 5.5 19.5 5.5 31.2a14.5 14.5 0 0 0 29 0C34.5 19.5 20 1.5 20 1.5Z" fill="none" stroke="#7a4d17" stroke-opacity=".45" stroke-width=".8"/>
  <path d="M12.6 27.5c.9-5.2 4.3-10.3 6.9-13.7-.9 4.3-2.9 9.4-4.2 14.6-.7 2.6-3.2 1.7-2.7-.9Z" fill="#fff6dc" fill-opacity=".75"/>
  <ellipse cx="25.8" cy="37.2" rx="4.2" ry="2.3" transform="rotate(-35 25.8 37.2)" fill="#fff3cf" fill-opacity=".35"/>
  <path d="M19.2 48.6c-4.6 1.3-11.1.3-15.7-4.9 5.3.2 11.5 1.3 15.7 4.9Z" fill="url(#ml)"/>
  <path d="M20.8 48.6c4.6 1.3 11.1.3 15.7-4.9-5.3.2-11.5 1.3-15.7 4.9Z" fill="url(#ml)"/>
</g></svg>